<mxfile host="65bd71144e">
    <diagram id="e4LsUc_VD9uOUdYffuCS" name="Page-1">
        <mxGraphModel dx="1284" dy="543" grid="1" gridSize="10" guides="1" tooltips="1" connect="1" arrows="1" fold="1" page="1" pageScale="1" pageWidth="850" pageHeight="1100" math="0" shadow="0">
            <root>
                <mxCell id="0"/>
                <mxCell id="1" parent="0"/>
                <mxCell id="2" value="&lt;b&gt;User&lt;/b&gt;" style="rounded=0;whiteSpace=wrap;html=1;" vertex="1" parent="1">
                    <mxGeometry x="368" y="10" width="115" height="30" as="geometry"/>
                </mxCell>
                <mxCell id="4" value="" style="endArrow=none;html=1;exitX=0.5;exitY=1;exitDx=0;exitDy=0;" edge="1" parent="1" source="2">
                    <mxGeometry width="50" height="50" relative="1" as="geometry">
                        <mxPoint x="400" y="310" as="sourcePoint"/>
                        <mxPoint x="426" y="120" as="targetPoint"/>
                    </mxGeometry>
                </mxCell>
                <mxCell id="5" value="" style="childLayout=tableLayout;recursiveResize=0;shadow=0;fillColor=none;" vertex="1" parent="1">
                    <mxGeometry x="40" y="120" width="760" height="400" as="geometry"/>
                </mxCell>
                <mxCell id="6" value="" style="shape=tableRow;horizontal=0;startSize=0;swimlaneHead=0;swimlaneBody=0;top=0;left=0;bottom=0;right=0;dropTarget=0;collapsible=0;recursiveResize=0;expand=0;fontStyle=0;fillColor=none;strokeColor=inherit;" vertex="1" parent="5">
                    <mxGeometry width="760" height="134" as="geometry"/>
                </mxCell>
                <mxCell id="7" value="NAme" style="connectable=0;recursiveResize=0;strokeColor=inherit;fillColor=none;align=center;whiteSpace=wrap;html=1;" vertex="1" parent="6">
                    <mxGeometry width="254" height="134" as="geometry">
                        <mxRectangle width="254" height="134" as="alternateBounds"/>
                    </mxGeometry>
                </mxCell>
                <mxCell id="8" value="email" style="connectable=0;recursiveResize=0;strokeColor=inherit;fillColor=none;align=center;whiteSpace=wrap;html=1;" vertex="1" parent="6">
                    <mxGeometry x="254" width="252" height="134" as="geometry">
                        <mxRectangle width="252" height="134" as="alternateBounds"/>
                    </mxGeometry>
                </mxCell>
                <mxCell id="9" value="username" style="connectable=0;recursiveResize=0;strokeColor=inherit;fillColor=none;align=center;whiteSpace=wrap;html=1;" vertex="1" parent="6">
                    <mxGeometry x="506" width="254" height="134" as="geometry">
                        <mxRectangle width="254" height="134" as="alternateBounds"/>
                    </mxGeometry>
                </mxCell>
                <mxCell id="10" style="shape=tableRow;horizontal=0;startSize=0;swimlaneHead=0;swimlaneBody=0;top=0;left=0;bottom=0;right=0;dropTarget=0;collapsible=0;recursiveResize=0;expand=0;fontStyle=0;fillColor=none;strokeColor=inherit;" vertex="1" parent="5">
                    <mxGeometry y="134" width="760" height="132" as="geometry"/>
                </mxCell>
                <mxCell id="11" value="account_type" style="connectable=0;recursiveResize=0;strokeColor=inherit;fillColor=none;align=center;whiteSpace=wrap;html=1;" vertex="1" parent="10">
                    <mxGeometry width="254" height="132" as="geometry">
                        <mxRectangle width="254" height="132" as="alternateBounds"/>
                    </mxGeometry>
                </mxCell>
                <mxCell id="12" value="posts" style="connectable=0;recursiveResize=0;strokeColor=inherit;fillColor=none;align=center;whiteSpace=wrap;html=1;" vertex="1" parent="10">
                    <mxGeometry x="254" width="252" height="132" as="geometry">
                        <mxRectangle width="252" height="132" as="alternateBounds"/>
                    </mxGeometry>
                </mxCell>
                <mxCell id="13" value="projects" style="connectable=0;recursiveResize=0;strokeColor=inherit;fillColor=none;align=center;whiteSpace=wrap;html=1;" vertex="1" parent="10">
                    <mxGeometry x="506" width="254" height="132" as="geometry">
                        <mxRectangle width="254" height="132" as="alternateBounds"/>
                    </mxGeometry>
                </mxCell>
                <mxCell id="14" style="shape=tableRow;horizontal=0;startSize=0;swimlaneHead=0;swimlaneBody=0;top=0;left=0;bottom=0;right=0;dropTarget=0;collapsible=0;recursiveResize=0;expand=0;fontStyle=0;fillColor=none;strokeColor=inherit;" vertex="1" parent="5">
                    <mxGeometry y="266" width="760" height="134" as="geometry"/>
                </mxCell>
                <mxCell id="15" value="profile" style="connectable=0;recursiveResize=0;strokeColor=inherit;fillColor=none;align=center;whiteSpace=wrap;html=1;" vertex="1" parent="14">
                    <mxGeometry width="254" height="134" as="geometry">
                        <mxRectangle width="254" height="134" as="alternateBounds"/>
                    </mxGeometry>
                </mxCell>
                <mxCell id="16" value="subscribtions" style="connectable=0;recursiveResize=0;strokeColor=inherit;fillColor=none;align=center;whiteSpace=wrap;html=1;" vertex="1" parent="14">
                    <mxGeometry x="254" width="252" height="134" as="geometry">
                        <mxRectangle width="252" height="134" as="alternateBounds"/>
                    </mxGeometry>
                </mxCell>
                <mxCell id="17" value="likes" style="connectable=0;recursiveResize=0;strokeColor=inherit;fillColor=none;align=center;whiteSpace=wrap;html=1;" vertex="1" parent="14">
                    <mxGeometry x="506" width="254" height="134" as="geometry">
                        <mxRectangle width="254" height="134" as="alternateBounds"/>
                    </mxGeometry>
                </mxCell>
            </root>
        </mxGraphModel>
    </diagram>
</mxfile>